<?xml version="1.0" encoding="UTF-8" standalone="no"?>
<svg xmlns="http://www.w3.org/2000/svg" viewBox="55 50 90 165" fill="none">
  <g transform="matrix(1.839189,0,0,1.839189,-154.45356,41.028983)">
    <path
      fill="#ffffff"
      d="m 141.11903,28.378683 c -3.08904,0 -5.99444,0.618965 -8.7128,1.854562 -2.71838,1.173838 -5.09469,2.779855 -7.13346,4.818603 -2.03879,2.038809 -3.676,4.416099 -4.91162,7.134424 -1.17386,2.718374 -1.76251,5.592567 -1.76251,8.619777 v 25.25718 a 0.53028864,0.53028864 0 0 0 -0.003,0.0604 0.53028864,0.53028864 0 0 0 0.53029,0.530302 0.53028864,0.53028864 0 0 0 0.42,-0.208088 0.53028864,0.53028864 0 0 0 0.0384,-0.05755 0.53028864,0.53028864 0 0 0 0.0307,-0.06233 0.53028864,0.53028864 0 0 0 0.0173,-0.04795 7.2712309,7.2712309 0 0 1 5.1341,-2.124018 7.2712309,7.2712309 0 0 1 5.12548,2.11251 7.2712309,7.2712309 0 0 1 0.0921,0.09206 0.53508324,0.53508324 0 0 0 0.33178,0.116033 0.53508324,0.53508324 0 0 0 0.52836,-0.453572 v -0.163983 -5.133138 c 3.08904,1.544519 6.54999,2.314849 10.38039,2.314849 3.15087,0 6.08558,-0.585767 8.8039,-1.759624 2.78021,-1.173841 5.15745,-2.780824 7.13442,-4.819572 2.03875,-2.038771 3.61447,-4.417954 4.72655,-7.136333 1.17384,-2.718374 1.75962,-5.620868 1.75962,-8.709926 0,-3.089044 -0.61605,-5.99352 -1.85168,-8.711841 -1.17385,-2.718376 -2.78081,-5.097559 -4.81956,-7.136332 -2.03875,-2.038749 -4.41796,-3.642835 -7.13633,-4.816692 -2.71834,-1.173839 -5.58959,-1.762502 -8.61691,-1.762502 z m 0,12.14002 c 1.42097,0 2.74874,0.277285 3.98433,0.833292 1.23567,0.494285 2.31734,1.206925 3.24406,2.13361 0.92669,0.926739 1.66673,2.037746 2.22279,3.33515 0.55601,1.235633 0.8333,2.564342 0.8333,3.985294 0,1.420974 -0.27729,2.779949 -0.8333,4.077353 -0.49425,1.235633 -1.20399,2.347602 -2.13073,3.336122 -0.92672,0.926685 -2.00845,1.668642 -3.24406,2.224703 -1.23563,0.556038 -2.59359,0.834272 -4.07639,0.834272 -1.35914,0 -2.6879,-0.24795 -3.98531,-0.742217 -1.23558,-0.55602 -2.34762,-1.297977 -3.3361,-2.224703 -0.92672,-0.926739 -1.66868,-2.008429 -2.2247,-3.244062 -0.55607,-1.297404 -0.83428,-2.716928 -0.83428,-4.261468 0,-1.420952 0.24797,-2.749661 0.74222,-3.985294 0.556,-1.235592 1.29801,-2.316409 2.2247,-3.24309 0.92674,-0.926744 2.00843,-1.669609 3.24406,-2.22567 1.2974,-0.556007 2.68672,-0.833292 4.16941,-0.833292 z" />
    <circle cx="124.67126" cy="82.418076" r="6.0710444" fill="#8dff1a" />
  </g>
</svg>
