<?xml version="1.0" encoding="UTF-8" standalone="no"?>
<svg xmlns="http://www.w3.org/2000/svg" viewBox="0 0 210 297" fill="none">
  <g transform="matrix(1.9786884,0,0,1.9786884,40.242497,66.935014)">
    <path
      fill="#000000"
      d="m 32.776724,11.166526 c -3.08904,0 -5.994448,0.618965 -8.712808,1.854562 -2.718375,1.173838 -5.094685,2.779855 -7.133455,4.818603 -2.038789,2.038809 -3.675997,4.416099 -4.911625,7.134424 -1.173858,2.718374 -1.762502,5.592567 -1.762502,8.619777 v 25.25718 a 0.53028864,0.53028864 0 0 0 -0.0027,0.0604 0.53028864,0.53028864 0 0 0 0.530284,0.530302 0.53028864,0.53028864 0 0 0 0.420007,-0.208088 0.53028864,0.53028864 0 0 0 0.03836,-0.05755 0.53028864,0.53028864 0 0 0 0.03071,-0.06233 0.53028864,0.53028864 0 0 0 0.01728,-0.04795 7.2712309,7.2712309 0 0 1 5.134099,-2.124018 7.2712309,7.2712309 0 0 1 5.125473,2.11251 7.2712309,7.2712309 0 0 1 0.09206,0.09206 0.53508324,0.53508324 0 0 0 0.331787,0.116033 0.53508324,0.53508324 0 0 0 0.528355,-0.453572 v -0.163983 -5.133138 c 3.089044,1.544519 6.549989,2.314849 10.380395,2.314849 3.150869,0 6.085576,-0.585767 8.803897,-1.759624 2.780208,-1.173841 5.157445,-2.780824 7.134421,-4.819572 2.038749,-2.038771 3.614464,-4.417954 4.726549,-7.136333 1.173835,-2.718374 1.759624,-5.620868 1.759624,-8.709926 0,-3.089044 -0.616051,-5.99352 -1.851684,-8.711841 -1.173848,-2.718376 -2.780812,-5.097559 -4.819562,-7.136332 -2.038748,-2.038749 -4.417954,-3.642835 -7.136333,-4.816692 -2.718338,-1.173839 -5.589582,-1.762502 -8.616903,-1.762502 z m 0,12.14002 c 1.42097,0 2.748734,0.277285 3.984326,0.833292 1.235669,0.494285 2.317341,1.206925 3.244062,2.13361 0.926685,0.926739 1.666731,2.037746 2.222792,3.33515 0.556007,1.235633 0.833292,2.564342 0.833292,3.985294 0,1.420974 -0.277285,2.779949 -0.833292,4.077353 -0.494249,1.235633 -1.203993,2.347602 -2.130732,3.336122 -0.926726,0.926685 -2.008451,1.668642 -3.244062,2.224703 -1.235633,0.556038 -2.593587,0.834272 -4.076386,0.834272 -1.359145,0 -2.687907,-0.24795 -3.985316,-0.742217 -1.235575,-0.55602 -2.34762,-1.297977 -3.336099,-2.224703 -0.926721,-0.926739 -1.668678,-2.008429 -2.224703,-3.244062 -0.556061,-1.297404 -0.834277,-2.716928 -0.834277,-4.261468 0,-1.420952 0.247968,-2.749661 0.742217,-3.985294 0.556007,-1.235592 1.298018,-2.316409 2.224708,-3.24309 0.926739,-0.926744 2.008428,-1.669609 3.244057,-2.22567 1.297404,-0.556007 2.68672,-0.833292 4.169413,-0.833292 z" />
    <circle cx="16.328945" cy="65.205917" r="6.0710444" fill="#8dff1a" />
  </g>
</svg>
